<svg xmlns="http://www.w3.org/2000/svg" xmlns:xlink="http://www.w3.org/1999/xlink" viewBox="0 0 163.79 142.44"><defs><style>.a{fill:none;}.b{clip-path:url(#a);}.c{fill:#eca72e;}.d{fill:url(#b);}</style><clipPath id="a"><rect class="a" width="62.36" height="36.85"/></clipPath><pattern id="b" width="62.36" height="36.85" patternTransform="matrix(0.88, 0, 0, -0.97, -1162.86, 16670.97)" patternUnits="userSpaceOnUse" viewBox="0 0 62.36 36.85"><rect class="a" width="62.36" height="36.85"/><g class="b"><path class="c" d="M17.63-3.79V0h2.5V-3.79h4.78L18.88-23l-6,19.21Zm3.88-2.5H16.26l2.62-8.37Z"/><path class="c" d="M63.58-3.79V0h2.49V-3.79h4.78L64.83-23l-6,19.21Zm3.87-2.5H62.2l2.63-8.37Z"/><path class="c" d="M48.26-3.79V0h2.5V-3.79h4.78L49.51-23l-6,19.21Zm3.88-2.5H46.89l2.62-8.37Z"/><path class="c" d="M33-3.79V0h2.5V-3.79h4.77L34.2-23l-6,19.21Zm3.87-2.5H31.57l2.63-8.37Z"/><path class="c" d="M1.21-3.79V0h2.5V-3.79H8.49L2.46-23l-6,19.21Zm3.88-2.5H-.16l2.62-8.37Z"/><path class="c" d="M17.63,33.06v3.82h2.5V33.06h4.78l-6-19.21-6,19.21Zm3.88-2.5H16.26l2.62-8.37Z"/><path class="c" d="M63.58,33.06v3.82h2.49V33.06h4.78l-6-19.21-6,19.21Zm3.87-2.5H62.2l2.63-8.37Z"/><path class="c" d="M48.26,33.06v3.82h2.5V33.06h4.78l-6-19.21-6,19.21Zm3.88-2.5H46.89l2.62-8.37Z"/><path class="c" d="M33,33.06v3.82h2.5V33.06h4.77l-6-19.21-6,19.21Zm3.87-2.5H31.57l2.63-8.37Z"/><path class="c" d="M43.1,3.79V0H40.6V3.79H35.83l6,19.21,6-19.21Zm-3.87,2.5h5.25l-2.63,8.37Z"/><path class="c" d="M58.42,3.79V0h-2.5V3.79H51.14l6,19.21,6-19.21Zm-3.88,2.5h5.25l-2.62,8.37Z"/><path class="c" d="M12.47,3.79V0H10V3.79H5.2l6,19.21,6-19.21ZM8.6,6.29h5.25l-2.63,8.37Z"/><path class="c" d="M27.79,3.79V0h-2.5V3.79H20.51l6,19.21,6-19.21Zm-3.88,2.5h5.25l-2.62,8.37Z"/><path class="c" d="M1.21,33.06v3.82h2.5V33.06H8.49l-6-19.21-6,19.21Zm3.88-2.5H-.16l2.62-8.37Z"/><path class="c" d="M-3.94,3.79V0h-2.5V3.79h-4.78l6,19.21,6-19.21Zm-3.88,2.5h5.25l-2.62,8.37Z"/><path class="c" d="M43.1,40.64V36.82H40.6v3.82H35.83l6,19.21,6-19.21Zm-3.87,2.5h5.25l-2.63,8.37Z"/><path class="c" d="M58.42,40.64V36.82h-2.5v3.82H51.14l6,19.21,6-19.21Zm-3.88,2.5h5.25l-2.62,8.37Z"/><path class="c" d="M12.47,40.64V36.82H10v3.82H5.2l6,19.21,6-19.21ZM8.6,43.14h5.25l-2.63,8.37Z"/><path class="c" d="M27.79,40.64V36.82h-2.5v3.82H20.51l6,19.21,6-19.21Zm-3.88,2.5h5.25l-2.62,8.37Z"/><path class="c" d="M-3.94,40.64V36.82h-2.5v3.82h-4.78l6,19.21,6-19.21Zm-3.88,2.5h5.25l-2.62,8.37Z"/></g></pattern></defs><polygon class="d" points="163.76 142.44 0.05 142.44 0 0 163.79 0 163.76 142.44"/></svg>