<svg xmlns="http://www.w3.org/2000/svg" width="400.357" height="68.157" viewBox="0 0 400.357 68.157">
  <g id="Group_54" data-name="Group 54" transform="translate(-148.053 -25)">
    <path id="Path_460" data-name="Path 460" d="M-1010.7,55.533c0-11.312-8.552-20.746-19.859-21.085-.163-.005-.324-.005-.486-.007h-.126c-.162,0-.324,0-.487.007-11.305.339-19.859,9.773-19.859,21.085,0,5.983,5.156,13.78,10.276,20.049l-8.44,8.44,18.573,18.576,18.574-18.576-8.722-8.722C-1016.035,68.793-1010.7,60.849-1010.7,55.533Zm-28.977-4.674a9.532,9.532,0,0,1,8.568-5.478,9.529,9.529,0,0,1,8.568,5.478,9.534,9.534,0,0,1-4.573,12.685,9.47,9.47,0,0,1-4,.9,9.468,9.468,0,0,1-3.994-.9A9.534,9.534,0,0,1-1039.679,50.859Zm19.773,33.163-11.2,11.206-11.2-11.206,4.471-4.47c3.683,4.115,6.67,6.915,6.67,6.915s2.931-2.943,6.564-7.148Z" transform="translate(1199.572 -9.441)"/>
    <path id="Path_464" data-name="Path 464" d="M14.175,22v2H2.125V6.25H13.95v2H4.375V14H12.7v1.875H4.375V22ZM30.05,8.25H23.925V24h-2.25V8.25H15.55v-2h14.5ZM44.65,22v2H32.6V6.25H44.425v2H34.85V14h8.325v1.875H34.85V22Zm3.075,2V6.25h2.25V22h9.9v2Zm20-17.75h1.9L76.875,24h-2.4l-2.1-5.2h-7.45L62.85,24h-2.4Zm4.15,10.8-3.2-8.2-3.3,8.2ZM65.725,3.725V1.175h1.85v2.55Zm4.05,0V1.175h1.85v2.55Zm8.95,14.45v-2H86.1v2ZM89.825,24V6.25h7.4a4.818,4.818,0,0,1,2.162.487,5.439,5.439,0,0,1,1.7,1.3A6.2,6.2,0,0,1,102.2,9.862a5.569,5.569,0,0,1,.4,2.063,6.137,6.137,0,0,1-.375,2.125,5.865,5.865,0,0,1-1.062,1.825,5.165,5.165,0,0,1-1.65,1.275,4.764,4.764,0,0,1-2.137.475h-5.3V24Zm2.25-8.375H97.25a2.734,2.734,0,0,0,1.262-.288,2.863,2.863,0,0,0,.963-.8,3.932,3.932,0,0,0,.625-1.187,4.477,4.477,0,0,0,.225-1.425A3.987,3.987,0,0,0,99.362,9.3a3.092,3.092,0,0,0-1.025-.775A2.884,2.884,0,0,0,97.1,8.25H92.075Zm20.525,8.5a7.574,7.574,0,0,1-3.412-.763,8.421,8.421,0,0,1-2.637-2.025,9.208,9.208,0,0,1-1.7-2.888,9.529,9.529,0,0,1-.6-3.325,9.227,9.227,0,0,1,.638-3.4A9.372,9.372,0,0,1,106.65,8.85a8.477,8.477,0,0,1,2.662-1.988,7.616,7.616,0,0,1,3.338-.737,7.3,7.3,0,0,1,3.4.787,8.708,8.708,0,0,1,2.625,2.063,9.567,9.567,0,0,1,2.3,6.175,9.227,9.227,0,0,1-.637,3.4,9.341,9.341,0,0,1-1.75,2.863,8.421,8.421,0,0,1-2.65,1.975A7.616,7.616,0,0,1,112.6,24.125Zm-6.075-9a7.923,7.923,0,0,0,.438,2.612,7.218,7.218,0,0,0,1.238,2.237,5.99,5.99,0,0,0,1.925,1.55,5.412,5.412,0,0,0,2.5.575,5.245,5.245,0,0,0,2.55-.613,6.229,6.229,0,0,0,1.912-1.6,7.147,7.147,0,0,0,1.2-2.238,8.011,8.011,0,0,0,.413-2.525,7.923,7.923,0,0,0-.437-2.613,6.93,6.93,0,0,0-1.25-2.225,6.255,6.255,0,0,0-1.925-1.538,5.64,5.64,0,0,0-5.012.025,6.152,6.152,0,0,0-1.913,1.575,7.191,7.191,0,0,0-1.212,2.225A7.871,7.871,0,0,0,106.525,15.125Zm31.85-8.875V24h-2.25V15.925H126.35V24H124.1V6.25h2.25v7.675h9.775V6.25Zm3,15.1a5.124,5.124,0,0,0,1.35.625,6.242,6.242,0,0,0,1.925.275,3.921,3.921,0,0,0,2.025-.45,2.822,2.822,0,0,0,1.137-1.337,7.22,7.22,0,0,0,.512-2.187q.125-1.3.125-3V6.25h2.25v9.025a33.093,33.093,0,0,1-.187,3.688,7.729,7.729,0,0,1-.825,2.837,4.477,4.477,0,0,1-1.825,1.825,6.716,6.716,0,0,1-3.213.65,6.629,6.629,0,0,1-3.85-1.1Zm18.35-15.1h1.9L168.875,24h-2.4l-2.1-5.2h-7.45L154.85,24h-2.4Zm4.15,10.8-3.2-8.2-3.3,8.2Zm9.625-6.6V24h-2.25V6.25H173l11,13.825V6.275h2.25V24h-1.9ZM205.85,24V10.275L199.95,20.8h-1.275L192.75,10.275V24H190.5V6.25h2.375L199.3,17.775,205.75,6.25h2.35V24Zm11.9-17.75h1.9L226.9,24h-2.4l-2.1-5.2h-7.45L212.875,24h-2.4Zm4.15,10.8-3.2-8.2-3.3,8.2Zm12.775-10.8h1.9L243.825,24h-2.4l-2.1-5.2h-7.45L229.8,24h-2.4Zm4.15,10.8-3.2-8.2-3.3,8.2Zm9.625-6.6V24H246.2V6.25h1.75l11,13.825V6.275h2.25V24h-1.9Z" transform="translate(202 29)" fill="#010101"/>
    <path id="Path_463" data-name="Path 463" d="M18.42,11.8H12.3V28H6.45V11.8H.3V6.7H18.42Zm5.7-5.1h5.34L36.84,28H30.9l-1.29-4.17H23.94L22.68,28H16.71Zm4.56,13.23-1.89-6.6-1.98,6.6ZM38.61,28V6.7h9.18a6.471,6.471,0,0,1,2.88.645,7.476,7.476,0,0,1,2.265,1.68A7.846,7.846,0,0,1,54.42,11.4a7.11,7.11,0,0,1,.54,2.685,7.811,7.811,0,0,1-1.935,5.115,6.785,6.785,0,0,1-2.22,1.65,6.635,6.635,0,0,1-2.865.615H44.46V28Zm5.85-11.64h3.09a1.369,1.369,0,0,0,1.005-.5,2.62,2.62,0,0,0,.465-1.785,2.359,2.359,0,0,0-.54-1.8,1.637,1.637,0,0,0-1.08-.48H44.46ZM61.26,6.7H66.6L73.98,28H68.04l-1.29-4.17H61.08L59.82,28H53.85Zm4.56,13.23-1.89-6.6-1.98,6.6ZM94.59,6.7V28H88.74V19.66H81.6V28H75.75V6.7H81.6v7.86h7.14V6.7Zm20.25,5.1h-6.12V28h-5.85V11.8H96.72V6.7h18.12Zm11.43,11.19a3.218,3.218,0,0,0,1.74-.45,3.583,3.583,0,0,0,1.17-1.185,5.451,5.451,0,0,0,.66-1.695,9.383,9.383,0,0,0,.21-2.01V6.7h5.85V17.65a14.641,14.641,0,0,1-.57,4.155,9.02,9.02,0,0,1-1.77,3.345,8.371,8.371,0,0,1-3.015,2.22,10.418,10.418,0,0,1-4.275.81,10.174,10.174,0,0,1-4.365-.855,8.376,8.376,0,0,1-2.985-2.3,9.227,9.227,0,0,1-1.71-3.345,14.73,14.73,0,0,1-.54-4.035V6.7h5.85V17.65a9.592,9.592,0,0,0,.21,2.025,5.445,5.445,0,0,0,.66,1.71,3.494,3.494,0,0,0,1.155,1.17A3.225,3.225,0,0,0,126.27,22.99ZM155.37,28V16.78l-3.57,7.89h-3.12l-3.57-7.89V28h-5.85V6.7h6.39l4.59,10.02L154.86,6.7h6.36V28ZM170.4,6.7h5.34L183.12,28h-5.94l-1.29-4.17h-5.67L168.96,28h-5.97Zm4.56,13.23-1.89-6.6-1.98,6.6ZM184.89,28V6.7h5.85v8.1l6.48-8.1h6.6l-7.74,9.54L204.36,28h-6.72l-5.28-7.83-1.62,1.68V28ZM211.11,6.7h5.34L223.83,28h-5.94l-1.29-4.17h-5.67L209.67,28H203.7Zm4.56,13.23-1.89-6.6-1.98,6.6ZM225.6,28V6.7h5.85V22.9h9.66V28Zm32.73-5.1V28H243.15V6.7h14.91v5.1H249v3h7.74v4.74H249V22.9Zm8.58-5.37V28h-5.85V6.7h4.56l8.55,10.83V6.7h5.85V28h-4.65Zm33.36-5.73h-6.12V28H288.3V11.8h-6.15V6.7h18.12Zm17.31,11.1V28H302.4V6.7h14.91v5.1h-9.06v3h7.74v4.74h-7.74V22.9Zm2.73,5.1V6.7h9.78a6.471,6.471,0,0,1,2.88.645,7.476,7.476,0,0,1,2.265,1.68,7.845,7.845,0,0,1,1.485,2.37,7.109,7.109,0,0,1,.54,2.685,7.582,7.582,0,0,1-.81,3.465,7.065,7.065,0,0,1-2.25,2.625L338.7,28h-6.6l-3.75-6.54h-2.19V28Zm5.85-11.64h3.69a1.3,1.3,0,0,0,1.005-.6,2.685,2.685,0,0,0,.465-1.68,2.413,2.413,0,0,0-.54-1.695,1.513,1.513,0,0,0-1.08-.585h-3.54ZM340.56,28V6.7h5.85V28Z" transform="translate(202 56)" fill="#010101"/>
  </g>
</svg>
